# xmcd CD database file
#
# Track frame offsets:
#	151
#	14224
#	28813
#	43154
#	57565
#	70651
#	84588
#	96250
#	110643
#	124416
#	137736
#	151638
#	164935
#	177315
#	188521
#	201794
#	214322
#	227438
#	239491
#	251862
#	265455
#	278831
#	292410
#	306401
#	320962
#	335684
#
# Disc length: 4668 seconds
#
# Revision: 1
# Processed by: cddbd v1.5.2PL0 Copyright (c) Steve Scherf et al.
# Submitted via: CDex 1.70beta2
#
DISCID=ab123a1a
DTITLE=Bukka White - Robert PetWay - Mississippi Blues Singers CD 3
DYEAR=2008
DGENRE=Blues
TTITLE0=Bukka White - The New Frisco Train
TTITLE1=Bukka White - The Panama Limited
TTITLE2=Bukka White - I´m Am In A Heavenly Way
TTITLE3=Bukka White - The Promise True And Grand
TTITLE4=Bukka White - Pinebluff Arkansas
TTITLE5=Bukka White - Shake´em on Down
TTITLE6=Bukka White - Sic'em on Down
TTITLE7=Bukka White - Po' Boy
TTITLE8=Bukka White - Black Train Blues
TTITLE9=Bukka White - Strange Place Blues
TTITLE10=Bukka White - When Can I Change My Clothes
TTITLE11=Bukka White - Sleepy Man Blues
TTITLE12=Bukka White - Parchman Farm Blues
TTITLE13=Bukka White - Good Gin Blues
TTITLE14=Bukka White - High Fever Blues
TTITLE15=Bukka White - District Attorney Blues
TTITLE16=Bukka White - Fixxin' To Die Blues
TTITLE17=Bukka White - Aberdeen Mississippi Blues
TTITLE18=Bukka White - Bukka's Jitterbug Swing
TTITLE19=Bukka White - Special Stream Line
TTITLE20=Robert Petway - Catfish Blues
TTITLE21=Robert Petway - Ride'em on Down
TTITLE22=Robert Petway - Rocking Chair Blues
TTITLE23=Robert Petway - My Little Girl
TTITLE24=Robert Petway - Let Me Me Your Boss
TTITLE25=Robert Petway - Left My Baby Crying
EXTD=YEAR: 2008
EXTT0=
EXTT1=
EXTT2=
EXTT3=
EXTT4=
EXTT5=
EXTT6=
EXTT7=
EXTT8=
EXTT9=
EXTT10=
EXTT11=
EXTT12=
EXTT13=
EXTT14=
EXTT15=
EXTT16=
EXTT17=
EXTT18=
EXTT19=
EXTT20=
EXTT21=
EXTT22=
EXTT23=
EXTT24=
EXTT25=
PLAYORDER=
